<svg width="53" height="23" viewBox="0 0 53 23" fill="none" xmlns="http://www.w3.org/2000/svg">
<path d="M2.10526 10C1.27683 10 0.605255 10.6716 0.605255 11.5C0.605255 12.3284 1.27683 13 2.10526 13L2.10526 10ZM52.4291 12.5607C53.0149 11.9749 53.0149 11.0251 52.4291 10.4393L42.8831 0.893398C42.2973 0.307612 41.3476 0.307612 40.7618 0.893398C40.176 1.47918 40.176 2.42893 40.7618 3.01472L49.2471 11.5L40.7618 19.9853C40.176 20.5711 40.176 21.5208 40.7618 22.1066C41.3476 22.6924 42.2973 22.6924 42.8831 22.1066L52.4291 12.5607ZM2.10526 13L51.3684 13V10L2.10526 10L2.10526 13Z" fill="#FFE8C5"/>
</svg>
